<svg width="542" height="94" viewBox="0 0 542 94" fill="none" xmlns="http://www.w3.org/2000/svg">
<path d="M13.9539 12.4V37H37.0539C54.6039 37 55.3539 27.85 55.3539 24.7C55.3539 21.7 54.7539 12.4 37.0539 12.4H13.9539ZM3.00391 1.44999H39.1539C58.5039 1.44999 66.9039 11.5 66.9039 24.7C66.9039 33.4 63.3039 40.6 55.3539 44.5C63.9039 52.6 67.8039 69.7 67.8039 69.7H56.2539C56.2539 69.7 52.2039 50.2 40.9539 47.8C40.3539 47.95 39.7539 47.95 39.1539 47.95H13.9539V69.7H3.00391V1.44999ZM132.197 12.25C116.597 12.25 104.297 21.4 104.297 36.1C104.297 50.65 116.597 59.8 132.197 59.8C147.797 59.8 160.247 50.65 160.247 36.1C160.247 21.4 147.797 12.25 132.197 12.25ZM132.197 1.44999C156.947 1.44999 172.097 16.3 172.097 36.1C172.097 55.75 155.897 70.6 132.197 70.6C108.647 70.6 92.4473 56.65 92.4473 36.1C92.4473 15.4 107.597 1.44999 132.197 1.44999ZM238.926 12.25C223.326 12.25 211.026 21.4 211.026 36.1C211.026 50.65 223.326 59.8 238.926 59.8C254.526 59.8 266.976 50.65 266.976 36.1C266.976 21.4 254.526 12.25 238.926 12.25ZM238.926 1.44999C263.676 1.44999 278.826 16.3 278.826 36.1C278.826 55.75 262.626 70.6 238.926 70.6C215.376 70.6 199.176 56.65 199.176 36.1C199.176 15.4 214.326 1.44999 238.926 1.44999ZM305.904 1.44999H319.704L345.204 53.95L370.704 1.44999H385.404V69.7H374.304V19.75L351.204 65.65H338.454L316.854 20.35V69.7H305.904V1.44999ZM413.951 69.7V1.44999H432.851V69.7H413.951ZM499.339 18.7C488.239 18.7 480.439 25.3 480.439 35.65C480.439 45.85 488.239 52.6 499.339 52.6C510.439 52.6 518.239 45.85 518.239 35.65C518.239 25.3 510.439 18.7 499.339 18.7ZM499.339 0.849992C526.639 0.849992 538.939 16.45 538.939 35.65C538.939 48.7 533.089 60.1 520.789 65.95C523.939 66.55 527.389 66.55 528.889 66.55V85.9C506.539 85.9 492.289 78.7 487.489 69.25C468.739 65.35 459.889 51.7 459.889 35.65C459.889 16.45 472.189 0.849992 499.339 0.849992Z" fill="white"/>
</svg>
